<svg xmlns="http://www.w3.org/2000/svg" viewBox="0 0 520 160" width="520" height="160" role="img">
  <title>DAS Health — Primary Logo</title>
  <desc>DAS Health full horizontal lockup: eye-leaf icon with wordmark and tagline</desc>

  <!-- Icon group, left-anchored -->
  <g transform="translate(78, 80)">
    <!-- Eye outer fill -->
    <path d="M0,-36 C22,-36 58,-12 68,0 C58,12 22,36 0,36 C-22,36 -58,12 -68,0 C-58,-12 -22,-36 0,-36 Z"
          fill="#EBF7EE"/>
    <!-- Eye outline -->
    <path d="M0,-36 C22,-36 58,-12 68,0 C58,12 22,36 0,36 C-22,36 -58,12 -68,0 C-58,-12 -22,-36 0,-36 Z"
          fill="none" stroke="#2C9942" stroke-width="2.5"/>
    <!-- Iris -->
    <circle cx="0" cy="0" r="18" fill="#2C9942"/>
    <!-- Leaf pupil -->
    <path d="M0,-10 C6,-10 10,-5 10,0 C10,5 6,10 0,10 C-6,10 -10,5 -10,0 C-10,-5 -6,-10 0,-10 Z"
          fill="#ffffff"/>
    <!-- Leaf midrib -->
    <line x1="0" y1="-8" x2="0" y2="8" stroke="#2C9942" stroke-width="1.2" opacity="0.55"/>
    <!-- Eyelash top-left -->
    <line x1="-24" y1="-29" x2="-21" y2="-22" stroke="#2C9942" stroke-width="1.8" stroke-linecap="round"/>
    <!-- Eyelash top-center -->
    <line x1="0" y1="-34" x2="0" y2="-26" stroke="#2C9942" stroke-width="1.8" stroke-linecap="round"/>
    <!-- Eyelash top-right -->
    <line x1="24" y1="-29" x2="21" y2="-22" stroke="#2C9942" stroke-width="1.8" stroke-linecap="round"/>
    <!-- Medical cross badge -->
    <rect x="48" y="-9" width="16" height="16" rx="3" fill="#2C9942"/>
    <rect x="51.5" y="-12" width="9" height="22" rx="1.5" fill="#EBF7EE"/>
    <rect x="45" y="-4.5" width="22" height="9" rx="1.5" fill="#EBF7EE"/>
  </g>

  <!-- Wordmark: DAS -->
  <text x="168" y="68" font-family="'Poppins'"
        font-size="54" font-weight="700" letter-spacing="5" fill="#002E63">DAS</text>

  <!-- Wordmark: HEALTH -->
  <text x="170" y="100" font-family="'Poppins'"
        font-size="15" font-weight="400" letter-spacing="11" fill="#3D3D3D">HEALTH</text>

  <!-- Divider -->
  <line x1="168" y1="116" x2="488" y2="116" stroke="#2C9942" stroke-width="0.8" opacity="0.35"/>

  <!-- Tagline -->
  <text x="170" y="138" font-family="'Poppins'"
        font-size="11" font-weight="400" letter-spacing="0.8" fill="#647184">Direct Aid Somalia · Eye Health Management Platform</text>
</svg>



