<svg xmlns="http://www.w3.org/2000/svg" viewBox="0 0 720 900" width="720" height="900" role="img">
  <title>DAS Health - Brand Color Palette</title>
  <desc>Official DAS Health brand colors from tokens/colors.css: green, navy, red, mist, white, slate neutrals, and status accents.</desc>

  <rect width="720" height="900" fill="#F5F7FA"/>
  <rect width="720" height="74" fill="#002E63"/>
  <text x="36" y="31" font-family="'Poppins'" font-size="18" font-weight="700" letter-spacing="1.5" fill="#FFFFFF">DAS HEALTH</text>
  <text x="36" y="55" font-family="'Poppins'" font-size="11" fill="#C2D2E6">Official brand color system - Direct Aid Somalia</text>

  <text x="36" y="108" font-family="'Poppins'" font-size="10" font-weight="700" letter-spacing="2.2" fill="#647184">CORE BRAND COLORS</text>

  <rect x="36" y="122" width="132" height="96" rx="8" fill="#2C9942"/>
  <rect x="48" y="134" width="56" height="17" rx="8.5" fill="#FFFFFF" opacity="0.2"/>
  <text x="76" y="146" text-anchor="middle" font-family="'Poppins'" font-size="8.5" font-weight="700" fill="#FFFFFF">PRIMARY</text>
  <text x="52" y="181" font-family="'Poppins'" font-size="12" font-weight="700" fill="#FFFFFF">Brand Green</text>
  <text x="52" y="200" font-family="'Poppins'" font-size="10" fill="#EBF7EE">#2C9942</text>

  <rect x="184" y="122" width="132" height="96" rx="8" fill="#002E63"/>
  <rect x="196" y="134" width="48" height="17" rx="8.5" fill="#FFFFFF" opacity="0.2"/>
  <text x="220" y="146" text-anchor="middle" font-family="'Poppins'" font-size="8.5" font-weight="700" fill="#FFFFFF">NAVY</text>
  <text x="200" y="181" font-family="'Poppins'" font-size="12" font-weight="700" fill="#FFFFFF">Brand Navy</text>
  <text x="200" y="200" font-family="'Poppins'" font-size="10" fill="#C2D2E6">#002E63</text>

  <rect x="332" y="122" width="132" height="96" rx="8" fill="#E53935"/>
  <rect x="344" y="134" width="54" height="17" rx="8.5" fill="#FFFFFF" opacity="0.2"/>
  <text x="371" y="146" text-anchor="middle" font-family="'Poppins'" font-size="8.5" font-weight="700" fill="#FFFFFF">CRITICAL</text>
  <text x="348" y="181" font-family="'Poppins'" font-size="12" font-weight="700" fill="#FFFFFF">Brand Red</text>
  <text x="348" y="200" font-family="'Poppins'" font-size="10" fill="#FDECEB">#E53935</text>

  <rect x="480" y="122" width="92" height="96" rx="8" fill="#F5F7FA" stroke="#DDE3EA"/>
  <text x="496" y="181" font-family="'Poppins'" font-size="12" font-weight="700" fill="#353E4B">Mist</text>
  <text x="496" y="200" font-family="'Poppins'" font-size="10" fill="#647184">#F5F7FA</text>

  <rect x="588" y="122" width="96" height="96" rx="8" fill="#FFFFFF" stroke="#DDE3EA"/>
  <text x="604" y="181" font-family="'Poppins'" font-size="12" font-weight="700" fill="#353E4B">White</text>
  <text x="604" y="200" font-family="'Poppins'" font-size="10" fill="#647184">#FFFFFF</text>

  <text x="36" y="260" font-family="'Poppins'" font-size="10" font-weight="700" letter-spacing="2.2" fill="#647184">GREEN RAMP</text>
  <g transform="translate(36 276)">
    <rect width="648" height="70" rx="8" fill="#FFFFFF" stroke="#DDE3EA"/>
    <rect x="0" y="0" width="72" height="70" rx="8" fill="#EBF7EE"/><text x="12" y="46" font-size="10" fill="#353E4B" font-family="'Poppins'">50</text><text x="12" y="60" font-size="8" fill="#647184" font-family="'Poppins'">#EBF7EE</text>
    <rect x="72" y="0" width="72" height="70" fill="#CFECD7"/><text x="84" y="46" font-size="10" fill="#353E4B" font-family="'Poppins'">100</text><text x="84" y="60" font-size="8" fill="#647184" font-family="'Poppins'">#CFECD7</text>
    <rect x="144" y="0" width="72" height="70" fill="#A6DCB5"/><text x="156" y="46" font-size="10" fill="#353E4B" font-family="'Poppins'">200</text><text x="156" y="60" font-size="8" fill="#353E4B" font-family="'Poppins'">#A6DCB5</text>
    <rect x="216" y="0" width="72" height="70" fill="#6FC587"/><text x="228" y="46" font-size="10" fill="#141920" font-family="'Poppins'">300</text><text x="228" y="60" font-size="8" fill="#141920" font-family="'Poppins'">#6FC587</text>
    <rect x="288" y="0" width="72" height="70" fill="#45B066"/><text x="300" y="46" font-size="10" fill="#FFFFFF" font-family="'Poppins'">400</text><text x="300" y="60" font-size="8" fill="#FFFFFF" font-family="'Poppins'">#45B066</text>
    <rect x="360" y="0" width="72" height="70" fill="#2C9942"/><text x="372" y="46" font-size="10" fill="#FFFFFF" font-family="'Poppins'">500</text><text x="372" y="60" font-size="8" fill="#FFFFFF" font-family="'Poppins'">#2C9942</text>
    <rect x="432" y="0" width="72" height="70" fill="#238038"/><text x="444" y="46" font-size="10" fill="#FFFFFF" font-family="'Poppins'">600</text><text x="444" y="60" font-size="8" fill="#FFFFFF" font-family="'Poppins'">#238038</text>
    <rect x="504" y="0" width="72" height="70" fill="#1C662D"/><text x="516" y="46" font-size="10" fill="#FFFFFF" font-family="'Poppins'">700</text><text x="516" y="60" font-size="8" fill="#FFFFFF" font-family="'Poppins'">#1C662D</text>
    <rect x="576" y="0" width="72" height="70" rx="8" fill="#0F3A1A"/><text x="588" y="46" font-size="10" fill="#FFFFFF" font-family="'Poppins'">900</text><text x="588" y="60" font-size="8" fill="#FFFFFF" font-family="'Poppins'">#0F3A1A</text>
  </g>

  <text x="36" y="388" font-family="'Poppins'" font-size="10" font-weight="700" letter-spacing="2.2" fill="#647184">NAVY RAMP</text>
  <g transform="translate(36 404)">
    <rect width="648" height="70" rx="8" fill="#FFFFFF" stroke="#DDE3EA"/>
    <rect x="0" y="0" width="72" height="70" rx="8" fill="#E7EDF5"/><text x="12" y="46" font-size="10" fill="#353E4B" font-family="'Poppins'">50</text><text x="12" y="60" font-size="8" fill="#647184" font-family="'Poppins'">#E7EDF5</text>
    <rect x="72" y="0" width="72" height="70" fill="#C2D2E6"/><text x="84" y="46" font-size="10" fill="#353E4B" font-family="'Poppins'">100</text><text x="84" y="60" font-size="8" fill="#647184" font-family="'Poppins'">#C2D2E6</text>
    <rect x="144" y="0" width="72" height="70" fill="#8AA6CB"/><text x="156" y="46" font-size="10" fill="#141920" font-family="'Poppins'">200</text><text x="156" y="60" font-size="8" fill="#141920" font-family="'Poppins'">#8AA6CB</text>
    <rect x="216" y="0" width="72" height="70" fill="#4F74A6"/><text x="228" y="46" font-size="10" fill="#FFFFFF" font-family="'Poppins'">300</text><text x="228" y="60" font-size="8" fill="#FFFFFF" font-family="'Poppins'">#4F74A6</text>
    <rect x="288" y="0" width="72" height="70" fill="#234A80"/><text x="300" y="46" font-size="10" fill="#FFFFFF" font-family="'Poppins'">400</text><text x="300" y="60" font-size="8" fill="#FFFFFF" font-family="'Poppins'">#234A80</text>
    <rect x="360" y="0" width="72" height="70" fill="#002E63"/><text x="372" y="46" font-size="10" fill="#FFFFFF" font-family="'Poppins'">500</text><text x="372" y="60" font-size="8" fill="#FFFFFF" font-family="'Poppins'">#002E63</text>
    <rect x="432" y="0" width="72" height="70" fill="#002654"/><text x="444" y="46" font-size="10" fill="#FFFFFF" font-family="'Poppins'">600</text><text x="444" y="60" font-size="8" fill="#FFFFFF" font-family="'Poppins'">#002654</text>
    <rect x="504" y="0" width="72" height="70" fill="#001D41"/><text x="516" y="46" font-size="10" fill="#FFFFFF" font-family="'Poppins'">700</text><text x="516" y="60" font-size="8" fill="#FFFFFF" font-family="'Poppins'">#001D41</text>
    <rect x="576" y="0" width="72" height="70" rx="8" fill="#000D1D"/><text x="588" y="46" font-size="10" fill="#FFFFFF" font-family="'Poppins'">900</text><text x="588" y="60" font-size="8" fill="#FFFFFF" font-family="'Poppins'">#000D1D</text>
  </g>

  <text x="36" y="516" font-family="'Poppins'" font-size="10" font-weight="700" letter-spacing="2.2" fill="#647184">NEUTRALS AND STATUS</text>
  <rect x="36" y="532" width="648" height="128" rx="8" fill="#FFFFFF" stroke="#DDE3EA"/>
  <rect x="56" y="554" width="84" height="58" rx="7" fill="#F5F7FA" stroke="#DDE3EA"/><text x="68" y="589" font-size="11" font-weight="700" fill="#353E4B" font-family="'Poppins'">Mist</text><text x="68" y="604" font-size="9" fill="#647184" font-family="'Poppins'">#F5F7FA</text>
  <rect x="152" y="554" width="84" height="58" rx="7" fill="#FFFFFF" stroke="#DDE3EA"/><text x="164" y="589" font-size="11" font-weight="700" fill="#353E4B" font-family="'Poppins'">Card</text><text x="164" y="604" font-size="9" fill="#647184" font-family="'Poppins'">#FFFFFF</text>
  <rect x="248" y="554" width="84" height="58" rx="7" fill="#141920"/><text x="260" y="589" font-size="11" font-weight="700" fill="#FFFFFF" font-family="'Poppins'">Text</text><text x="260" y="604" font-size="9" fill="#FFFFFF" font-family="'Poppins'">#141920</text>
  <rect x="344" y="554" width="84" height="58" rx="7" fill="#F59E0B"/><text x="356" y="589" font-size="11" font-weight="700" fill="#FFFFFF" font-family="'Poppins'">Warning</text><text x="356" y="604" font-size="9" fill="#FFFFFF" font-family="'Poppins'">#F59E0B</text>
  <rect x="440" y="554" width="84" height="58" rx="7" fill="#0E9384"/><text x="452" y="589" font-size="11" font-weight="700" fill="#FFFFFF" font-family="'Poppins'">Teal</text><text x="452" y="604" font-size="9" fill="#FFFFFF" font-family="'Poppins'">#0E9384</text>
  <rect x="536" y="554" width="84" height="58" rx="7" fill="#6D4BC4"/><text x="548" y="589" font-size="11" font-weight="700" fill="#FFFFFF" font-family="'Poppins'">Violet</text><text x="548" y="604" font-size="9" fill="#FFFFFF" font-family="'Poppins'">#6D4BC4</text>

  <text x="36" y="704" font-family="'Poppins'" font-size="10" font-weight="700" letter-spacing="2.2" fill="#647184">USAGE RULES</text>
  <rect x="36" y="720" width="648" height="116" rx="8" fill="#FFFFFF" stroke="#DDE3EA"/>
  <circle cx="60" cy="748" r="5" fill="#2C9942"/><text x="76" y="753" font-family="'Poppins'" font-size="12" fill="#141920">Primary actions, brand fills, success, selected states, and focus borders use Brand Green #2C9942.</text>
  <circle cx="60" cy="776" r="5" fill="#002E63"/><text x="76" y="781" font-family="'Poppins'" font-size="12" fill="#141920">Sidebar, dark chrome, secondary actions, depth, and info states use Brand Navy #002E63.</text>
  <circle cx="60" cy="804" r="5" fill="#E53935"/><text x="76" y="809" font-family="'Poppins'" font-size="12" fill="#141920">Destructive actions, flagged patients, critical alerts, and danger states use Brand Red #E53935.</text>
  <circle cx="60" cy="832" r="5" fill="#F5F7FA" stroke="#AFBBC9"/><text x="76" y="837" font-family="'Poppins'" font-size="12" fill="#141920">App backgrounds use Brand Mist #F5F7FA; cards and raised panels use #FFFFFF.</text>

  <rect y="868" width="720" height="32" fill="#002E63"/>
  <text x="36" y="888" font-family="'Poppins'" font-size="10" fill="#C2D2E6">DAS Health - Direct Aid Somalia - Brand colors from tokens/colors.css</text>
</svg>

