<svg xmlns="http://www.w3.org/2000/svg" viewBox="0 0 200 200" width="200" height="200" role="img">
  <title>DAS Health Transparent Mark</title>
  <desc>DAS Health standalone eye and medical cross mark on transparent canvas</desc>
  <path d="M100,58 C123,58 160,85 170,100 C160,115 123,142 100,142 C77,142 40,115 30,100 C40,85 77,58 100,58 Z" fill="#EBF7EE" opacity="0.18"/>
  <path d="M100,58 C123,58 160,85 170,100 C160,115 123,142 100,142 C77,142 40,115 30,100 C40,85 77,58 100,58 Z" fill="none" stroke="#EBF7EE" stroke-width="6" stroke-linecap="round" stroke-linejoin="round"/>
  <circle cx="100" cy="100" r="25" fill="#EBF7EE"/>
  <path d="M100,86 C108,86 114,93 114,100 C114,107 108,114 100,114 C92,114 86,107 86,100 C86,93 92,86 100,86 Z" fill="#2C9942"/>
  <line x1="100" y1="89" x2="100" y2="111" stroke="#EBF7EE" stroke-width="2" opacity="0.55"/>
  <line x1="72" y1="64" x2="76" y2="76" stroke="#EBF7EE" stroke-width="5" stroke-linecap="round"/>
  <line x1="100" y1="58" x2="100" y2="72" stroke="#EBF7EE" stroke-width="5" stroke-linecap="round"/>
  <line x1="128" y1="64" x2="124" y2="76" stroke="#EBF7EE" stroke-width="5" stroke-linecap="round"/>
  <rect x="132" y="116" width="26" height="26" rx="5" fill="#EBF7EE"/>
  <rect x="138" y="110" width="14" height="38" rx="3" fill="#2C9942"/>
  <rect x="126" y="122" width="38" height="14" rx="3" fill="#2C9942"/>
</svg>


