<svg xmlns="http://www.w3.org/2000/svg" viewBox="0 0 200 200">
  <title>DAS Health</title>
  <rect width="200" height="200" rx="42" fill="#0F4D2A"/>
  <circle cx="100" cy="100" r="68" fill="#FFFFFF"/>
  <path d="M67 104c0-24 15-44 33-44s33 20 33 44c0 17-7 31-18 39-7-15-18-23-33-26 11-5 18-16 18-29 0-10-4-19-11-25-13 7-22 23-22 41z" fill="#1A7A46"/>
  <path d="M100 60c18 0 33 20 33 44 0 21-11 38-26 43 6-10 9-21 9-34 0-23-9-42-23-51 2-1 5-2 7-2z" fill="#0F4D2A"/>
  <path d="M141 72l12 12 12-12 9 9-12 12 12 12-9 9-12-12-12 12-9-9 12-12-12-12 9-9z" fill="#B52A2A"/>
</svg>
